<mxfile host="app.diagrams.net" modified="2024-01-29T15:03:03.489Z" agent="Mozilla/5.0 (Windows NT 10.0; Win64; x64) AppleWebKit/537.36 (KHTML, like Gecko) Chrome/120.0.0.0 Safari/537.36 OPR/106.0.0.0 (Edition Yx 05)" etag="HkUa1PmZwFHNyHzMRQAl" version="23.0.2" type="device">
  <diagram name="Страница — 1" id="6sKG1RNIt1TuXZ88X-tN">
    <mxGraphModel dx="2123" dy="2321" grid="1" gridSize="10" guides="1" tooltips="1" connect="1" arrows="1" fold="1" page="1" pageScale="1" pageWidth="827" pageHeight="1169" math="0" shadow="0">
      <root>
        <mxCell id="0" />
        <mxCell id="1" parent="0" />
        <mxCell id="kZuOvjFSpTAQ2FCCBQzz-4" value="&lt;font style=&quot;font-size: 25px;&quot;&gt;Введение корней&amp;nbsp;&lt;br&gt;A B C&lt;/font&gt;" style="rounded=0;whiteSpace=wrap;html=1;" parent="1" vertex="1">
          <mxGeometry x="278" width="240" height="50" as="geometry" />
        </mxCell>
        <mxCell id="kZuOvjFSpTAQ2FCCBQzz-8" value="&lt;font style=&quot;font-size: 24px;&quot;&gt;Нет корней&lt;/font&gt;" style="rounded=0;whiteSpace=wrap;html=1;" parent="1" vertex="1">
          <mxGeometry x="610" y="290" width="153" height="70" as="geometry" />
        </mxCell>
        <mxCell id="kZuOvjFSpTAQ2FCCBQzz-10" value="" style="edgeStyle=orthogonalEdgeStyle;rounded=0;orthogonalLoop=1;jettySize=auto;html=1;exitX=0.5;exitY=0;exitDx=0;exitDy=0;entryX=0.5;entryY=0;entryDx=0;entryDy=0;" parent="1" source="kZuOvjFSpTAQ2FCCBQzz-9" target="kZuOvjFSpTAQ2FCCBQzz-9" edge="1">
          <mxGeometry relative="1" as="geometry" />
        </mxCell>
        <mxCell id="kZuOvjFSpTAQ2FCCBQzz-9" value="&lt;font style=&quot;font-size: 22px;&quot;&gt;Чему Равен D&lt;/font&gt;" style="rounded=0;whiteSpace=wrap;html=1;" parent="1" vertex="1">
          <mxGeometry x="323" y="290" width="154" height="70" as="geometry" />
        </mxCell>
        <mxCell id="kZuOvjFSpTAQ2FCCBQzz-12" value="&lt;font style=&quot;font-size: 24px;&quot;&gt;Один корень&amp;nbsp;&lt;/font&gt;" style="rounded=0;whiteSpace=wrap;html=1;" parent="1" vertex="1">
          <mxGeometry x="50" y="290" width="150" height="70" as="geometry" />
        </mxCell>
        <mxCell id="kZuOvjFSpTAQ2FCCBQzz-13" value="&lt;span style=&quot;color: rgb(51, 51, 51); font-family: &amp;quot;YS Text&amp;quot;, Arial, Helvetica, &amp;quot;Arial Unicode MS&amp;quot;, sans-serif; font-size: 28px; font-style: normal; font-variant-ligatures: normal; font-variant-caps: normal; font-weight: 400; letter-spacing: normal; orphans: 2; text-align: start; text-indent: 0px; text-transform: none; widows: 2; word-spacing: 0px; -webkit-text-stroke-width: 0px; background-color: rgb(255, 255, 255); text-decoration-thickness: initial; text-decoration-style: initial; text-decoration-color: initial; float: none; display: inline !important;&quot;&gt;&lt;span&gt;&amp;nbsp;&lt;/span&gt;D &amp;lt; 0&lt;/span&gt;" style="text;whiteSpace=wrap;html=1;" parent="1" vertex="1">
          <mxGeometry x="500" y="260" width="90" height="40" as="geometry" />
        </mxCell>
        <mxCell id="kZuOvjFSpTAQ2FCCBQzz-14" value="" style="endArrow=classic;html=1;rounded=0;exitX=1;exitY=0.5;exitDx=0;exitDy=0;entryX=0;entryY=0.5;entryDx=0;entryDy=0;" parent="1" source="kZuOvjFSpTAQ2FCCBQzz-9" edge="1">
          <mxGeometry width="50" height="50" relative="1" as="geometry">
            <mxPoint x="220" y="600" as="sourcePoint" />
            <mxPoint x="610" y="325" as="targetPoint" />
          </mxGeometry>
        </mxCell>
        <mxCell id="kZuOvjFSpTAQ2FCCBQzz-15" value="" style="endArrow=classic;html=1;rounded=0;entryX=1;entryY=0.5;entryDx=0;entryDy=0;exitX=0;exitY=0.5;exitDx=0;exitDy=0;" parent="1" source="kZuOvjFSpTAQ2FCCBQzz-9" target="kZuOvjFSpTAQ2FCCBQzz-12" edge="1">
          <mxGeometry width="50" height="50" relative="1" as="geometry">
            <mxPoint x="270" y="280" as="sourcePoint" />
            <mxPoint x="270" y="550" as="targetPoint" />
          </mxGeometry>
        </mxCell>
        <mxCell id="kZuOvjFSpTAQ2FCCBQzz-16" value="&lt;font style=&quot;font-size: 28px;&quot;&gt;Два корня&lt;/font&gt;" style="rounded=0;whiteSpace=wrap;html=1;" parent="1" vertex="1">
          <mxGeometry x="323" y="460" width="150" height="70" as="geometry" />
        </mxCell>
        <mxCell id="kZuOvjFSpTAQ2FCCBQzz-17" style="edgeStyle=orthogonalEdgeStyle;rounded=0;orthogonalLoop=1;jettySize=auto;html=1;exitX=0.5;exitY=1;exitDx=0;exitDy=0;" parent="1" source="kZuOvjFSpTAQ2FCCBQzz-16" target="kZuOvjFSpTAQ2FCCBQzz-16" edge="1">
          <mxGeometry relative="1" as="geometry" />
        </mxCell>
        <mxCell id="kZuOvjFSpTAQ2FCCBQzz-18" value="" style="endArrow=classic;html=1;rounded=0;exitX=0.5;exitY=1;exitDx=0;exitDy=0;entryX=0.5;entryY=0;entryDx=0;entryDy=0;" parent="1" source="kZuOvjFSpTAQ2FCCBQzz-9" target="kZuOvjFSpTAQ2FCCBQzz-16" edge="1">
          <mxGeometry width="50" height="50" relative="1" as="geometry">
            <mxPoint x="220" y="580" as="sourcePoint" />
            <mxPoint x="270" y="530" as="targetPoint" />
          </mxGeometry>
        </mxCell>
        <mxCell id="kZuOvjFSpTAQ2FCCBQzz-19" value="&lt;span style=&quot;color: rgb(51, 51, 51); font-family: &amp;quot;YS Text&amp;quot;, Arial, Helvetica, &amp;quot;Arial Unicode MS&amp;quot;, sans-serif; font-style: normal; font-variant-ligatures: normal; font-variant-caps: normal; font-weight: 400; letter-spacing: normal; orphans: 2; text-align: start; text-indent: 0px; text-transform: none; widows: 2; word-spacing: 0px; -webkit-text-stroke-width: 0px; background-color: rgb(255, 255, 255); text-decoration-thickness: initial; text-decoration-style: initial; text-decoration-color: initial; float: none; display: inline !important;&quot;&gt;&lt;font style=&quot;font-size: 22px;&quot;&gt;D = b2 − 4ac.&lt;/font&gt;&lt;/span&gt;" style="text;whiteSpace=wrap;html=1;" parent="1" vertex="1">
          <mxGeometry x="500" y="760" width="170" height="40" as="geometry" />
        </mxCell>
        <mxCell id="kZuOvjFSpTAQ2FCCBQzz-20" value="" style="endArrow=none;html=1;rounded=0;exitX=0.5;exitY=1;exitDx=0;exitDy=0;" parent="1" source="kZuOvjFSpTAQ2FCCBQzz-12" edge="1">
          <mxGeometry width="50" height="50" relative="1" as="geometry">
            <mxPoint x="220" y="580" as="sourcePoint" />
            <mxPoint x="120" y="660" as="targetPoint" />
          </mxGeometry>
        </mxCell>
        <mxCell id="kZuOvjFSpTAQ2FCCBQzz-21" value="" style="endArrow=none;html=1;rounded=0;exitX=0.5;exitY=1;exitDx=0;exitDy=0;" parent="1" edge="1">
          <mxGeometry width="50" height="50" relative="1" as="geometry">
            <mxPoint x="686.5" y="360" as="sourcePoint" />
            <mxPoint x="687" y="660" as="targetPoint" />
          </mxGeometry>
        </mxCell>
        <mxCell id="kZuOvjFSpTAQ2FCCBQzz-23" value="" style="verticalLabelPosition=bottom;verticalAlign=top;html=1;shape=mxgraph.basic.smiley" parent="1" vertex="1">
          <mxGeometry x="350" y="610" width="100" height="90" as="geometry" />
        </mxCell>
        <mxCell id="kZuOvjFSpTAQ2FCCBQzz-24" value="" style="endArrow=none;html=1;rounded=0;entryX=0.2;entryY=0.556;entryDx=0;entryDy=0;entryPerimeter=0;" parent="1" target="kZuOvjFSpTAQ2FCCBQzz-23" edge="1">
          <mxGeometry width="50" height="50" relative="1" as="geometry">
            <mxPoint x="120" y="660" as="sourcePoint" />
            <mxPoint x="270" y="530" as="targetPoint" />
          </mxGeometry>
        </mxCell>
        <mxCell id="kZuOvjFSpTAQ2FCCBQzz-25" value="" style="endArrow=none;html=1;rounded=0;entryX=0.861;entryY=0.567;entryDx=0;entryDy=0;entryPerimeter=0;" parent="1" target="kZuOvjFSpTAQ2FCCBQzz-23" edge="1">
          <mxGeometry width="50" height="50" relative="1" as="geometry">
            <mxPoint x="690" y="660" as="sourcePoint" />
            <mxPoint x="270" y="530" as="targetPoint" />
          </mxGeometry>
        </mxCell>
        <mxCell id="kZuOvjFSpTAQ2FCCBQzz-27" value="Text" style="edgeLabel;html=1;align=center;verticalAlign=middle;resizable=0;points=[];" parent="kZuOvjFSpTAQ2FCCBQzz-25" vertex="1" connectable="0">
          <mxGeometry x="0.6272" y="1" relative="1" as="geometry">
            <mxPoint as="offset" />
          </mxGeometry>
        </mxCell>
        <mxCell id="kZuOvjFSpTAQ2FCCBQzz-28" value="&lt;font style=&quot;font-size: 24px;&quot;&gt;Вычисление по формуле&lt;br&gt;D = b2 − 4ac.&lt;/font&gt;" style="rounded=0;whiteSpace=wrap;html=1;" parent="1" vertex="1">
          <mxGeometry x="278" y="80" width="232" height="120" as="geometry" />
        </mxCell>
        <mxCell id="kZuOvjFSpTAQ2FCCBQzz-29" value="" style="endArrow=classic;html=1;rounded=0;entryX=0.5;entryY=0;entryDx=0;entryDy=0;" parent="1" target="kZuOvjFSpTAQ2FCCBQzz-28" edge="1">
          <mxGeometry width="50" height="50" relative="1" as="geometry">
            <mxPoint x="394" y="50" as="sourcePoint" />
            <mxPoint x="270" y="400" as="targetPoint" />
          </mxGeometry>
        </mxCell>
        <mxCell id="kZuOvjFSpTAQ2FCCBQzz-30" value="" style="endArrow=classic;html=1;rounded=0;exitX=0.5;exitY=1;exitDx=0;exitDy=0;" parent="1" source="kZuOvjFSpTAQ2FCCBQzz-28" edge="1">
          <mxGeometry width="50" height="50" relative="1" as="geometry">
            <mxPoint x="220" y="450" as="sourcePoint" />
            <mxPoint x="394" y="280" as="targetPoint" />
          </mxGeometry>
        </mxCell>
        <mxCell id="kZuOvjFSpTAQ2FCCBQzz-32" value="" style="endArrow=classic;html=1;rounded=0;exitX=0.5;exitY=1;exitDx=0;exitDy=0;" parent="1" source="kZuOvjFSpTAQ2FCCBQzz-16" target="kZuOvjFSpTAQ2FCCBQzz-23" edge="1">
          <mxGeometry width="50" height="50" relative="1" as="geometry">
            <mxPoint x="220" y="450" as="sourcePoint" />
            <mxPoint x="270" y="400" as="targetPoint" />
          </mxGeometry>
        </mxCell>
        <mxCell id="JnLsGjGLVFz_i6GMfT63-1" value="&lt;font style=&quot;font-size: 28px;&quot;&gt;D = 0&lt;/font&gt;" style="text;html=1;align=center;verticalAlign=middle;resizable=0;points=[];autosize=1;strokeColor=none;fillColor=none;" vertex="1" parent="1">
          <mxGeometry x="210" y="260" width="90" height="50" as="geometry" />
        </mxCell>
        <mxCell id="JnLsGjGLVFz_i6GMfT63-2" value="&lt;font style=&quot;font-size: 28px;&quot;&gt;D &amp;gt; 0&lt;/font&gt;" style="text;html=1;align=center;verticalAlign=middle;resizable=0;points=[];autosize=1;strokeColor=none;fillColor=none;" vertex="1" parent="1">
          <mxGeometry x="410" y="390" width="90" height="50" as="geometry" />
        </mxCell>
      </root>
    </mxGraphModel>
  </diagram>
</mxfile>
